# xmcd
#
# Track frame offsets:
#	150
#	16476
#	32713
#	47258
#	60550
#	77469
#	91973
#	108735
#	124072
#	139233
#	153411
#	169410
#	185936
#	202441
#	214352
#	232141
#	246398
#
# Disc length: 3345 seconds
#
# Revision: 1
# Processed by: cddbd v1.5.2PL0 Copyright (c) Steve Scherf et al.
# Submitted via: audiograbber 1.83.01
#
DISCID=010d0f11
DTITLE=CDX - 502
DYEAR=2010
DGENRE=
TTITLE0=Julianne Hough - Is That So Wrong?
TTITLE1=Darryl Worley - Keep The Change
TTITLE2=Miranda Lambert - Only Prettier
TTITLE3=Leann Rimes - Swingin'
TTITLE4=Randy Rogers Band - Too Late For Goodbye
TTITLE5=Chris Young - Voices
TTITLE6=Blackberry Smoke - Good One Comin' On
TTITLE7=Jimmie Vanzant - Too Much Town, Not Enough Ground
TTITLE8=DJ Miller - A Little Naughty Is Nice
TTITLE9=Teea Goans - I Don't Do Bridges Anymore
TTITLE10=Tony "Hobo" Parks - Nowhere To Go
TTITLE11=Brantley Gilbert - My Kind Of Crazy (Side A)
TTITLE12=Brantley Gilbert - Country Must Be Countrywide (Side B0
TTITLE13=John Long - Bring Country Back
TTITLE14=Burly Cruz - Just You and Me
TTITLE15=COPD PSA - Patty Loveless w/ Song "Drive"
TTITLE16=COPD PSA - Patty Loveless
EXTD=
EXTT0=
EXTT1=
EXTT2=
EXTT3=
EXTT4=
EXTT5=
EXTT6=
EXTT7=
EXTT8=
EXTT9=
EXTT10=
EXTT11=
EXTT12=
EXTT13=
EXTT14=
EXTT15=
EXTT16=
PLAYORDER=
